<?xml version="1.0" encoding="UTF-8" standalone="no"?><!DOCTYPE svg PUBLIC "-//W3C//DTD SVG 1.1//EN" "http://www.w3.org/Graphics/SVG/1.1/DTD/svg11.dtd"><svg width="130px" height="80px" version="1.1" xmlns="http://www.w3.org/2000/svg" xmlns:xlink="http://www.w3.org/1999/xlink" xml:space="preserve" xmlns:serif="http://www.serif.com/" style="fill-rule:evenodd;clip-rule:evenodd;stroke-linejoin:round;stroke-miterlimit:2;"><g id="Softfocus" transform="matrix(0.166473,0,0,0.166473,-17.9862,-1446.99)"><g transform="matrix(-0.976767,-0.214306,-0.214306,0.976767,564.626,8948.5)"><path d="M-10.281,-94.859C-36.782,-94.859 -58.271,-73.369 -58.27,-46.872C-58.268,-20.372 -36.781,1.115 -10.281,1.116C16.22,1.116 37.706,-20.372 37.707,-46.875C37.706,-73.372 16.216,-94.859 -10.281,-94.859" style="fill:rgb(120,134,148);"/></g><g transform="matrix(1.01158,0,0,1.01158,-7.2924,-106.208)"><g transform="matrix(1,0,0,1,457.565,9164.37)"><path d="M0,-55.057L0,6.138C0,7.317 0.955,8.273 2.134,8.273L10.313,8.273C11.492,8.273 12.447,7.317 12.447,6.138L12.447,-19.669C12.447,-20.848 13.403,-21.803 14.582,-21.803L51.67,-21.803C52.849,-21.803 53.804,-22.759 53.804,-23.937L53.804,-32.117C53.804,-33.296 52.849,-34.251 51.67,-34.251L14.582,-34.251C13.403,-34.251 12.447,-35.207 12.447,-36.386L12.447,-48.749C12.447,-49.928 13.403,-50.883 14.582,-50.883L59.709,-50.883C60.888,-50.883 61.843,-51.839 61.843,-53.017L61.843,-61.196C61.843,-62.375 60.888,-63.33 59.709,-63.33L8.965,-63.33C3.849,-63.061 0.849,-60.857 0,-55.057" style="fill:rgb(120,134,148);"/></g><g transform="matrix(1,0,0,1,603.187,9121.06)"><path d="M0,31.569C-4.384,36.614 -10.425,39.138 -18.125,39.138L-38.142,39.138C-45.845,39.138 -51.887,36.614 -56.268,31.569C-60.185,27.055 -62.045,21.544 -61.844,15.038C-61.578,8.863 -59.487,3.684 -55.57,-0.499C-51.122,-5.212 -45.313,-7.57 -38.142,-7.57L-18.125,-7.57C-10.955,-7.57 -5.181,-5.212 -0.796,-0.499C3.187,3.684 5.278,8.863 5.477,15.038C5.741,21.544 3.915,27.055 0,31.569M-18.125,-20.017L-38.142,-20.017C-49.693,-20.017 -58.792,-16.364 -65.429,-9.062C-71.272,-2.623 -74.194,5.41 -74.194,15.038C-74.194,24.796 -71.141,33.163 -65.032,40.132C-58.26,47.768 -49.296,51.586 -38.142,51.586L-18.125,51.586C-6.975,51.586 1.99,47.768 8.762,40.132C14.87,33.163 17.924,24.796 17.924,15.038C17.924,5.41 14.97,-2.623 9.063,-9.062C2.489,-16.364 -6.575,-20.017 -18.125,-20.017" style="fill:rgb(120,134,148);"/></g><g transform="matrix(1,0,0,1,639.474,9161.69)"><path d="M0,-49.693C-5.84,-43.254 -8.761,-35.221 -8.761,-25.593C-8.761,-15.835 -5.708,-7.467 0.399,-0.499C7.17,7.138 16.134,10.955 27.287,10.955L65.486,10.955C66.665,10.955 67.62,10 67.62,8.821L67.62,0.642C67.62,-0.537 66.665,-1.492 65.486,-1.492L27.287,-1.492C19.587,-1.492 13.545,-4.017 9.162,-9.062C5.244,-13.576 3.388,-19.087 3.586,-25.593C3.852,-31.767 5.943,-36.947 9.86,-41.13C14.31,-45.842 20.117,-48.2 27.287,-48.2L65.486,-48.2C66.665,-48.2 67.62,-49.156 67.62,-50.335L67.62,-58.513C67.62,-59.692 66.665,-60.648 65.486,-60.648L27.287,-60.648C15.736,-60.648 6.641,-56.995 0,-49.693" style="fill:rgb(120,134,148);"/></g><g transform="matrix(1,0,0,1,783.376,9133.31)"><path d="M0,7.069C0,14.637 -2.325,19.981 -6.971,23.104C-10.823,25.625 -16.83,26.888 -24.997,26.888L-29.278,26.888C-37.444,26.888 -43.453,25.625 -47.304,23.104C-51.953,19.981 -54.275,14.637 -54.275,7.069L-54.275,-30.133C-54.275,-31.311 -55.231,-32.267 -56.41,-32.267L-64.589,-32.267C-65.768,-32.267 -66.723,-31.311 -66.723,-30.133L-66.723,7.069C-66.723,18.62 -63.338,27.021 -56.565,32.266C-50.457,36.978 -41.361,39.336 -29.278,39.336L-24.997,39.336C-12.913,39.336 -3.851,36.978 2.191,32.266C9.03,27.021 12.447,18.62 12.447,7.069L12.447,-30.133C12.447,-31.311 11.492,-32.267 10.313,-32.267L2.134,-32.267C0.956,-32.267 0,-31.311 0,-30.133L0,7.069Z" style="fill:rgb(120,134,148);"/></g><g transform="matrix(1,0,0,1,879.811,9138.59)"><path d="M0,-3.483C-4.58,-8.131 -10.69,-10.455 -18.324,-10.455L-52.183,-10.455C-54.906,-10.455 -57.063,-11.219 -58.657,-12.744C-60.05,-14.074 -60.749,-15.735 -60.749,-17.726C-60.749,-19.716 -59.984,-21.443 -58.456,-22.905C-56.93,-24.364 -54.839,-25.095 -52.183,-25.095L-0.243,-25.095C0.936,-25.095 1.892,-26.051 1.892,-27.23L1.892,-35.408C1.892,-36.587 0.936,-37.543 -0.243,-37.543L-52.183,-37.543C-59.22,-37.543 -64.798,-35.484 -68.915,-31.369C-72.63,-27.65 -74.49,-23.137 -74.49,-17.826C-74.49,-12.447 -72.63,-7.9 -68.915,-4.182C-64.798,-0.066 -59.22,1.992 -52.183,1.992L-18.324,1.992C-14.142,1.992 -10.82,2.989 -8.365,4.981C-6.174,6.774 -5.079,8.996 -5.079,11.655C-5.079,14.307 -6.207,16.597 -8.464,18.524C-10.92,20.583 -14.208,21.613 -18.324,21.613L-70.764,21.613C-71.942,21.613 -72.898,22.568 -72.898,23.747L-72.898,31.926C-72.898,33.105 -71.942,34.06 -70.764,34.06L-18.324,34.06C-10.556,34.06 -4.415,31.768 0.102,27.188C4.151,23.072 6.173,17.994 6.173,11.952C6.173,5.91 4.116,0.766 0,-3.483" style="fill:rgb(120,134,148);"/></g><g transform="matrix(1,0,0,1,445.725,9172.65)"><path d="M0,-71.603L-64.646,-71.603C-65.824,-71.603 -66.78,-70.647 -66.78,-69.469L-66.78,-61.29C-66.78,-60.111 -65.824,-59.156 -64.646,-59.156L-40.634,-59.156C-39.456,-59.156 -38.5,-58.2 -38.5,-57.021L-38.5,-2.135C-38.5,-0.956 -37.544,0 -36.366,0L-28.184,0C-27.005,0 -26.05,-0.956 -26.05,-2.135L-26.05,-57.021C-26.05,-58.2 -25.094,-59.156 -23.916,-59.156L0,-59.156C1.179,-59.156 2.134,-60.111 2.134,-61.29L2.134,-69.469C2.134,-70.647 1.179,-71.603 0,-71.603" style="fill:rgb(0,149,238);"/></g><g transform="matrix(1,0,0,1,306.091,9165.85)"><path d="M0,-58.009L-0.103,4.659C-0.105,5.839 0.851,6.797 2.031,6.797L11.632,6.797C12.811,6.797 13.767,5.842 13.767,4.662L13.767,-21.144C13.767,-22.323 14.722,-23.279 15.901,-23.279L53.061,-23.279C54.24,-23.279 55.195,-24.234 55.195,-25.413L55.195,-33.592C55.195,-34.771 54.24,-35.727 53.061,-35.727L15.901,-35.727C14.722,-35.727 13.767,-36.682 13.767,-37.861L13.767,-50.224C13.767,-51.403 14.722,-52.359 15.901,-52.359L55.195,-52.359L55.195,-52.401L61.028,-52.401C62.207,-52.401 63.163,-53.356 63.163,-54.535L63.163,-62.672C63.163,-63.85 62.207,-64.806 61.028,-64.806L7.007,-64.806C3.051,-64.379 0.563,-61.953 0,-58.009" style="fill:rgb(0,149,238);"/></g><g transform="matrix(1,0,0,1,278.371,9121.06)"><path d="M0,31.569C-4.383,36.614 -10.425,39.138 -18.124,39.138L-38.142,39.138C-45.845,39.138 -51.886,36.614 -56.267,31.569C-60.185,27.055 -62.044,21.544 -61.842,15.038C-61.578,8.863 -59.486,3.684 -55.569,-0.499C-51.122,-5.212 -45.304,-7.57 -38.142,-7.57L-18.124,-7.57C-10.962,-7.57 -5.181,-5.212 -0.796,-0.499C3.187,3.684 5.279,8.863 5.477,15.038C5.741,21.544 3.916,27.055 0,31.569M-18.124,-20.017L-38.142,-20.017C-49.695,-20.017 -58.791,-16.364 -65.429,-9.062C-71.272,-2.623 -74.193,5.41 -74.193,15.038C-74.193,24.796 -71.14,33.163 -65.032,40.132C-58.259,47.768 -49.287,51.586 -38.142,51.586L-18.124,51.586C-6.979,51.586 1.99,47.768 8.762,40.132C14.87,33.163 17.924,24.796 17.924,15.038C17.924,5.41 14.97,-2.623 9.063,-9.062C2.489,-16.364 -6.574,-20.017 -18.124,-20.017" style="fill:rgb(0,149,238);"/></g><g transform="matrix(1,0,0,1,170.182,9145.56)"><path d="M0,-17.429L-33.858,-17.429C-36.582,-17.429 -38.739,-18.193 -40.333,-19.718C-41.727,-21.048 -42.425,-22.709 -42.425,-24.7C-42.425,-26.69 -41.656,-28.425 -40.132,-29.879C-38.615,-31.329 -36.498,-32.069 -33.858,-32.069L18.081,-32.069C19.26,-32.069 20.215,-33.025 20.215,-34.203L20.215,-42.382C20.215,-43.561 19.26,-44.516 18.081,-44.516L-33.858,-44.516C-40.899,-44.516 -46.482,-42.45 -50.59,-38.343C-54.301,-34.632 -56.167,-30.111 -56.167,-24.8C-56.167,-19.421 -54.307,-14.874 -50.59,-11.156C-46.475,-7.039 -40.882,-4.982 -33.858,-4.982L0,-4.982C4.166,-4.982 7.503,-3.985 9.959,-1.993C12.149,-0.2 13.245,2.023 13.245,4.681C13.245,7.333 12.115,9.623 9.859,11.55C7.401,13.61 4.116,14.639 0,14.639L-52.44,14.639C-53.619,14.639 -54.574,15.594 -54.574,16.773L-54.574,24.952C-54.574,26.131 -53.619,27.087 -52.44,27.087L0,27.087C7.751,27.087 13.909,24.798 18.423,20.215C22.473,16.098 24.497,11.02 24.497,4.978C24.497,-1.064 22.439,-6.208 18.324,-10.457C13.741,-15.105 7.634,-17.429 0,-17.429" style="fill:rgb(0,149,238);"/></g></g><g transform="matrix(1,0,0,1,341.562,9054.03)"><path d="M0,-345.837C2.761,-345.097 4.107,-342.014 2.822,-339.461C-12.757,-308.524 -6.626,-269.807 20.212,-245.322C52.541,-215.828 102.666,-218.128 132.156,-250.455C162.412,-283.612 194.491,-293.307 222.539,-296.744C264.962,-302.671 309.614,-290.366 343.729,-259.245C404.551,-203.755 408.874,-109.434 353.384,-48.613C297.892,12.211 203.569,16.535 142.75,-38.954C118.511,-61.073 103.251,-89.358 97.172,-119.229C96.659,-121.751 98.432,-124.16 100.984,-124.495C119.28,-126.897 142.41,-133.104 158.434,-141.059C161.188,-142.426 164.403,-140.677 164.846,-137.634C167.391,-120.147 175.771,-103.4 189.84,-90.566C222.159,-61.075 272.286,-63.376 301.774,-95.698C331.266,-128.022 328.97,-178.146 296.645,-207.635C264.321,-237.128 214.194,-234.83 184.706,-202.503C160.393,-175.858 131.558,-162.004 94.326,-156.213C51.896,-150.285 7.249,-162.591 -26.872,-193.711C-74.045,-236.751 -87.211,-303.146 -64.858,-359.156C-64.02,-361.255 -61.707,-362.372 -59.523,-361.786L0,-345.837Z" style="fill:rgb(0,149,238);"/></g></g></svg>